<svg width="15" height="15" viewBox="0 0 15 15" fill="none" xmlns="http://www.w3.org/2000/svg">
<path d="M7.5 7.5V11.25M9.375 9.375H5.625M4.6875 5.15625V4.21875C4.6875 3.47283 4.98382 2.75746 5.51126 2.23001C6.03871 1.70257 6.75408 1.40625 7.5 1.40625V1.40625C8.24592 1.40625 8.96129 1.70257 9.48874 2.23001C10.0162 2.75746 10.3125 3.47283 10.3125 4.21875V5.15625M2.34375 5.15625C2.21943 5.15625 2.1002 5.20564 2.01229 5.29354C1.92439 5.38145 1.875 5.50068 1.875 5.625V11.9531C1.875 12.8391 2.62969 13.5938 3.51562 13.5938H11.4844C12.3703 13.5938 13.125 12.8757 13.125 11.9897V5.625C13.125 5.50068 13.0756 5.38145 12.9877 5.29354C12.8998 5.20564 12.7806 5.15625 12.6562 5.15625H2.34375Z" stroke="white" stroke-width="0.9375" stroke-linecap="round" stroke-linejoin="round"/>
</svg>
