<svg width="28" height="28" viewBox="0 0 28 28" fill="none" xmlns="http://www.w3.org/2000/svg">
<path d="M19.6879 0.646149C18.1588 0.832393 16.7527 1.61944 15.7499 2.85026C15.2606 3.4201 14.8925 4.09355 14.6701 4.82552C14.4478 5.55749 14.3764 6.33108 14.4608 7.09448C15.2295 7.07835 15.9852 6.88157 16.6726 6.51848C17.36 6.15539 17.9618 5.63515 18.4342 4.99571C18.9094 4.39648 19.2653 3.70256 19.4807 2.9553C19.696 2.20804 19.7665 1.42272 19.6879 0.646149Z" fill="black"/>
<path d="M25.1502 9.63727C24.5635 8.8303 23.8161 8.16868 22.9607 7.69895C22.1052 7.22923 21.1625 6.96281 20.1989 6.91846C17.8751 6.91846 16.8909 8.06919 15.2767 8.06919C13.6119 8.06919 12.3469 6.92247 10.3368 6.92247C9.24219 6.98036 8.17744 7.31855 7.2347 7.90775C6.29197 8.49694 5.49965 9.31941 4.92631 10.304C3.05155 13.3081 3.37286 18.9578 6.41018 23.7713C7.49683 25.4928 8.94908 27.4289 10.8466 27.4462C12.5367 27.4635 13.0123 26.3261 15.3008 26.3141C17.5892 26.3021 18.0243 27.4608 19.7094 27.4422C21.6069 27.4275 23.1401 25.2821 24.2267 23.5606C24.8826 22.5368 25.443 21.4486 25.9004 20.3112C24.892 19.9252 24.0109 19.2402 23.3632 18.3387C22.7155 17.4373 22.3287 16.3577 22.2494 15.23C22.1702 14.1023 22.4018 12.9744 22.9164 11.9822C23.4311 10.99 24.2068 10.1757 25.1502 9.63727Z" fill="black"/>
</svg>
