<svg width="28" height="28" viewBox="0 0 28 28" fill="none" xmlns="http://www.w3.org/2000/svg">
<path fill-rule="evenodd" clip-rule="evenodd" d="M6.03423 14C6.03423 13.0906 6.18517 12.2187 6.45489 11.401L1.73645 7.79797C0.816828 9.665 0.298828 11.7689 0.298828 14C0.298828 16.2293 0.816391 18.3317 1.73448 20.1976L6.4503 16.5876C6.1832 15.7736 6.03423 14.9049 6.03423 14Z" fill="#FBBC05"/>
<path fill-rule="evenodd" clip-rule="evenodd" d="M14.3187 5.72731C16.2943 5.72731 18.0786 6.42731 19.4806 7.57269L23.559 3.5C21.0737 1.33634 17.8874 0 14.3187 0C8.77823 0 4.01648 3.16837 1.73645 7.798L6.45467 11.401C7.54186 8.10097 10.6409 5.72731 14.3187 5.72731Z" fill="#EA4335"/>
<path fill-rule="evenodd" clip-rule="evenodd" d="M14.3187 22.2727C10.6411 22.2727 7.54208 19.899 6.45489 16.599L1.73645 20.2013C4.01648 24.8316 8.77823 28 14.3187 28C17.7382 28 21.0031 26.7857 23.4533 24.5107L18.9746 21.0483C17.7109 21.8444 16.1195 22.2727 14.3187 22.2727Z" fill="#34A853"/>
<path fill-rule="evenodd" clip-rule="evenodd" d="M27.7012 14C27.7012 13.1727 27.5737 12.2817 27.3825 11.4547H14.3187V16.8637H21.8385C21.4624 18.708 20.4391 20.1257 18.9746 21.0484L23.4533 24.5107C26.0271 22.122 27.7012 18.5634 27.7012 14Z" fill="#4285F4"/>
</svg>
