<svg width="16" height="16" viewBox="0 0 16 16" fill="none" xmlns="http://www.w3.org/2000/svg">
<path d="M9.61671 3.625C9.61671 3.29348 9.48502 2.97554 9.2506 2.74112C9.01618 2.5067 8.69824 2.375 8.36671 2.375C8.03519 2.375 7.71725 2.5067 7.48283 2.74112C7.24841 2.97554 7.11671 3.29348 7.11671 3.625M12.9042 6.56L13.7698 12.185C13.7972 12.363 13.7858 12.5449 13.7364 12.7181C13.6869 12.8913 13.6006 13.0518 13.4834 13.1885C13.3662 13.3253 13.2208 13.4351 13.0572 13.5104C12.8936 13.5858 12.7156 13.6248 12.5355 13.625H4.19796C4.01773 13.625 3.83963 13.5861 3.67587 13.5108C3.5121 13.4356 3.36655 13.3258 3.24918 13.189C3.13182 13.0522 3.04542 12.8917 2.99591 12.7184C2.94639 12.5451 2.93494 12.3631 2.96234 12.185L3.82796 6.56C3.87337 6.26474 4.02301 5.99551 4.24979 5.80106C4.47657 5.60662 4.76549 5.49981 5.06421 5.5H11.6692C11.9678 5.49996 12.2566 5.60683 12.4832 5.80127C12.7099 5.9957 12.8594 6.26485 12.9048 6.56H12.9042Z" stroke="white" stroke-width="1.875" stroke-linecap="round" stroke-linejoin="round"/>
</svg>
