<svg width="15" height="15" viewBox="0 0 15 15" fill="none" xmlns="http://www.w3.org/2000/svg">
<g clip-path="url(#clip0_22_465)">
<path d="M2.68686 13.9219C2.61374 14.3381 3.02436 14.6634 3.38624 14.4778L7.50186 12.3628L11.6166 14.4778C11.9784 14.6634 12.3891 14.3381 12.3159 13.9228L11.5378 9.48844L14.8397 6.34219C15.1491 6.04781 14.9897 5.50969 14.5753 5.45156L9.98343 4.79906L7.93593 0.7425C7.89692 0.660271 7.83539 0.590797 7.75847 0.542149C7.68155 0.493501 7.59241 0.467678 7.5014 0.467678C7.41038 0.467678 7.32124 0.493501 7.24432 0.542149C7.1674 0.590797 7.10587 0.660271 7.06686 0.7425L5.01936 4.8L0.427489 5.4525C0.0140513 5.51062 -0.146261 6.04875 0.162176 6.34312L3.46499 9.48937L2.68686 13.9237V13.9219ZM7.2853 11.3278L3.82968 13.1034L4.4803 9.39375C4.49554 9.30836 4.48958 9.22052 4.46293 9.13797C4.43629 9.05542 4.38978 8.98068 4.32749 8.92031L1.60311 6.32344L5.40186 5.78344C5.48052 5.77156 5.55513 5.74079 5.6193 5.69377C5.68347 5.64674 5.73528 5.58487 5.7703 5.51344L7.49999 2.08406L9.23155 5.51344C9.26657 5.58487 9.31838 5.64674 9.38255 5.69377C9.44672 5.74079 9.52133 5.77156 9.59999 5.78344L13.3987 6.3225L10.6744 8.91937C10.6119 8.97984 10.5653 9.05474 10.5387 9.13747C10.512 9.2202 10.5061 9.30821 10.5216 9.39375L11.1722 13.1034L7.71655 11.3278C7.64973 11.2934 7.57564 11.2754 7.50046 11.2754C7.42528 11.2754 7.35119 11.2934 7.28436 11.3278H7.2853Z" fill="white"/>
</g>
<defs>
<clipPath id="clip0_22_465">
<rect width="15" height="15" fill="white"/>
</clipPath>
</defs>
</svg>
